HIERARCHY
ROOT pelvis
{
  OFFSET 0 0 0
  CHANNELS 6 Xposition Yposition Zposition Zrotation Xrotation Yrotation
  JOINT pelvis_right_femur
  {
    OFFSET -11.43119 -3.542788 0.2090856
    CHANNELS 3 Zrotation Xrotation Yrotation
    JOINT right_femur_tibia
    {
      OFFSET -1.028693 -40.73281 5
      CHANNELS 3 Zrotation Xrotation Yrotation
      JOINT right_tibia_foot
      {
        OFFSET -0.5013517 -42.05707 -5
        CHANNELS 3 Zrotation Xrotation Yrotation
        End Site
        {
          OFFSET 0 -5 10
        }
      }
    }
  }
  JOINT pelvis_left_femur
  {
    OFFSET 11.43119 -3.542788 0.2090856
    CHANNELS 3 Zrotation Xrotation Yrotation
    JOINT left_femur_tibia
    {
      OFFSET 1.028693 -40.73281 5
      CHANNELS 3 Zrotation Xrotation Yrotation
      JOINT left_tibia_foot
      {
        OFFSET 0.3200228 -42.98253 -5
        CHANNELS 3 Zrotation Xrotation Yrotation
        End Site
        {
          OFFSET 0 -5 10
        }
      }
    }
  }
  JOINT pelvis_spine1
  {
    OFFSET 0 8.64413 -3.209807
    CHANNELS 3 Zrotation Xrotation Yrotation
    JOINT spine1
    {
      OFFSET 0 29.53957 -1.762685
      CHANNELS 3 Zrotation Xrotation Yrotation
      JOINT spine2
      {
        OFFSET 0 16.36153 -0.1422377
        CHANNELS 3 Zrotation Xrotation Yrotation
        JOINT neck
        {
          OFFSET 0 11.60093 5
          CHANNELS 3 Zrotation Xrotation Yrotation
          End Site
          {
            OFFSET 0 20 0
          }
        }
      }
      JOINT right_manubrium
      {
        OFFSET -4.671311 15.89868 4
        CHANNELS 3 Zrotation Xrotation Yrotation
        JOINT right_clavicle
        {
          OFFSET -13.601 1.573642 -2.74176
          CHANNELS 3 Zrotation Xrotation Yrotation
          JOINT right_humerus
          {
            OFFSET -0.06331682 -27.72702 2.252146
            CHANNELS 3 Zrotation Xrotation Yrotation
            JOINT right_radius
            {
              OFFSET -0.5696302 -23.92083 0.4042105
              CHANNELS 3 Zrotation Xrotation Yrotation
              End Site
              {
                OFFSET 0 -15 0
              }
            }
          }
        }
      }
      JOINT left_manubrium
      {
        OFFSET 4.671311 15.89868 4
        CHANNELS 3 Zrotation Xrotation Yrotation
        JOINT left_clavicle
        {
          OFFSET 13.601 1.573642 -2.74176
          CHANNELS 3 Zrotation Xrotation Yrotation
          JOINT left_humerus
          {
            OFFSET 0.000209614 -29.01858 1.101395
            CHANNELS 3 Zrotation Xrotation Yrotation
            JOINT left_radius
            {
              OFFSET -0.2288314 -24.59216 1.790347
              CHANNELS 3 Zrotation Xrotation Yrotation
              End Site
              {
                OFFSET 0 -15 0
              }
            }
          }
        }
      }
    }
  }
}
MOTION
Frames: 19
Frame Time: 0.0416666666667
0 48.05195 0 -2.30743 -21.15872 -0.8974891 -51.70077 -60.97432 -40.55979 -180 81.45137 -180 10.49378 2.834581 3.456779 64.0636 -48.91949 51.50201 -180 71.87819 -180 -7.602996 -7.75611 -12.31882 -1.259732 20.6484 1.977894 9.162754 14.98811 -11.21166 -10.89972 9.735392 13.03016 4.32804 -26.73499 7.123803 20.08049 -9.821867 27.91949 -59.55563 -34.79393 17.49004 0 -64.30221 0 20.5409 5.005065 32.91377 -25.28889 -29.22217 -2.833777 53.71589 -23.11983 -26.45047 0 -69.45882 0 -8.320832 -6.256722 -14.63324
0.04052534 48.05797 0.01238507 -2.241665 -21.11359 -0.9968307 -51.86367 -61.04404 -40.65602 -180 81.47436 -180 10.46183 2.855202 3.498834 64.11412 -48.72168 51.70897 -180 71.89022 -180 -7.599535 -7.739691 -12.40314 -1.017042 20.78156 1.854796 8.603179 15.06897 -10.91155 -10.72838 9.661039 13.9603 4.263567 -26.85087 8.749514 20.38128 -9.880172 27.38749 -59.56294 -34.47024 16.94252 0 -65.01429 0 20.42856 4.831255 32.94311 -26.1349 -30.21381 -1.645624 53.87599 -19.94169 -21.6246 0 -70.3099 0 -4.818146 -9.292949 -11.91159
0.02076515 48.02725 0.02942864 -2.10665 -21.10162 -1.072339 -52.11906 -61.13709 -40.84871 -180 81.41931 -180 10.42702 2.868446 3.546309 64.17452 -48.49498 51.91037 -180 71.90843 -180 -7.583194 -7.694365 -12.51402 -0.7862483 20.9365 1.945867 7.741408 15.20793 -10.26835 -10.67581 9.64867 15.62071 4.27138 -26.863 11.26327 20.7299 -10.10609 26.12417 -59.74294 -33.93943 16.15025 0 -66.08113 0 20.27754 4.4994 32.93635 -27.04779 -32.17695 0.05700886 54.41359 -16.28857 -15.35261 0 -70.65405 0 -0.4135624 -12.56021 -8.363106
-0.05876169 48.01041 0.01030327 -1.905992 -21.09982 -1.056244 -52.46872 -61.19319 -41.11638 -180 81.35907 -180 10.39067 2.871952 3.556055 64.12751 -48.32374 52.05424 -180 72.0299 -180 -7.551882 -7.61547 -12.6462 -0.5800186 21.13025 2.304126 6.837674 15.3719 -9.381978 -11.04873 9.683793 17.97217 4.227335 -26.80035 14.43465 21.0049 -10.4536 24.42928 -60.12148 -33.21794 15.1914 0 -67.35747 0 20.1164 4.053607 32.89146 -27.50497 -34.72976 1.729652 55.16126 -12.77486 -8.736993 0 -69.96215 0 4.20064 -15.50175 -4.187024
-0.2198302 48.10431 -0.04513053 -1.630427 -21.02247 -0.9054246 -52.77922 -61.20246 -41.41273 -180 81.35591 -180 10.36341 2.852249 3.510932 63.96331 -48.23442 52.11109 -180 72.29679 -180 -7.496822 -7.508419 -12.79663 -0.6046293 21.44977 2.873879 6.093473 15.46925 -8.526919 -11.73804 9.657448 20.54854 4.107672 -26.75592 17.70477 21.14419 -10.79583 22.83595 -60.58387 -32.45108 14.29978 0 -68.68684 0 19.99254 3.535124 32.80758 -27.34869 -37.48445 2.686357 56.14073 -9.894328 -2.720681 0 -67.37889 0 7.792624 -17.36858 0.13631
-0.2971412 48.0622 -0.1010982 -1.67291 -20.85662 -0.6070964 -53.16582 -61.14752 -41.92896 -180 81.31126 -180 10.35872 2.828416 3.464724 64.32404 -48.45033 52.48545 -180 72.3975 -180 -7.445754 -7.440035 -12.96069 -0.447114 21.73826 3.337172 5.605611 15.38226 -7.880787 -12.37505 9.599017 22.80949 4.021638 -26.64346 20.53851 21.04929 -11.0708 21.71429 -61.04697 -31.77656 13.64555 0 -69.94126 0 19.93281 2.983296 32.68542 -26.67545 -40.0657 2.737588 57.39564 -7.947429 1.945957 0 -63.17699 0 9.556587 -18.17244 4.059126
-0.3669344 48.06097 -0.1714348 -1.744398 -20.72293 -0.255737 -53.40715 -61.01403 -42.32754 -180 81.29002 -180 10.35991 2.804129 3.390702 64.71719 -48.69105 52.8617 -180 72.47361 -180 -7.383067 -7.371836 -13.12509 -0.5794763 22.01133 3.794181 5.410444 15.29806 -7.459008 -12.78492 9.535271 24.43066 4.022526 -26.51568 22.59588 20.93874 -11.21564 21.05107 -61.4675 -31.12671 13.1623 0 -70.96157 0 19.90358 2.425256 32.50723 -25.55795 -42.41559 2.032028 59.14883 -6.985147 5.156531 0 -57.93424 0 9.391312 -18.3239 7.179233
-0.359244 48.02282 -0.1832695 -1.889408 -20.65062 0.04026893 -53.54472 -60.84223 -42.59207 -180 81.28001 -180 10.36122 2.782961 3.32473 65.15692 -48.88204 53.25523 -180 72.41356 -180 -7.328962 -7.344816 -13.2712 -0.8824141 22.21961 4.057303 5.492763 15.24407 -7.338784 -12.91087 9.378562 25.35863 4.100243 -26.44102 23.83924 20.9031 -11.33648 20.76158 -61.8993 -30.54492 12.74747 0 -71.65257 0 19.88477 1.858521 32.2478 -24.21179 -44.2566 0.827704 61.10384 -6.608243 6.982794 0 -51.98862 0 7.781603 -18.14282 9.581799
-0.2257618 47.96984 -0.1318052 -2.150402 -20.59981 0.1743718 -53.54176 -60.67789 -42.68916 -180 81.28355 -180 10.35893 2.763937 3.294123 65.62054 -49.02103 53.62152 -180 72.22218 -180 -7.293026 -7.379655 -13.36702 -1.268908 22.33516 4.10736 5.774613 15.27399 -7.420319 -12.73343 9.124121 25.67045 4.265806 -26.46211 24.38943 20.92741 -11.48209 20.60617 -62.33248 -30.08626 12.43159 0 -72.06962 0 19.88425 1.271862 31.90898 -22.56337 -45.65077 -0.2301662 63.29683 -6.342378 7.945532 0 -45.69708 0 5.447071 -17.84062 11.18474
-0.03693561 47.94593 -0.04640974 -2.460778 -20.55676 0.1823472 -53.35347 -60.54643 -42.59689 -180 81.33879 -180 10.35704 2.749464 3.276815 65.96943 -49.11734 53.84331 -180 71.98687 -180 -7.280518 -7.490136 -13.37683 -1.578937 22.28086 3.978245 6.078065 15.38235 -7.622869 -12.37207 8.93564 25.43755 4.529811 -26.49999 24.28004 21.04866 -11.5521 20.68052 -62.65091 -29.79788 12.32063 0 -72.1905 0 19.90154 0.6915398 31.48778 -21.12413 -46.59334 -1.211429 65.0765 -6.340698 8.085094 0 -40.32766 0 2.760808 -17.77411 12.21983
0.1614382 47.9545 0.04634362 -2.781883 -20.49676 0.09583183 -53.01406 -60.48401 -42.35421 -180 81.42931 -180 10.35811 2.736022 3.251622 66.17634 -49.23037 53.87928 -180 71.76518 -180 -7.287467 -7.651878 -13.2946 -1.829682 22.12657 3.807001 6.336048 15.48027 -7.873003 -11.823 8.854659 24.64108 4.915936 -26.5692 23.48358 21.26056 -11.53694 20.92875 -62.84683 -29.62449 12.35929 0 -72.04964 0 19.91537 0.1181689 30.97622 -20.04715 -47.36113 -2.035814 66.37504 -6.542726 7.835524 0 -36.04943 0 0.1708363 -17.91155 12.90385
0.3031039 47.97511 0.1193336 -3.088462 -20.42616 -0.03366816 -52.55252 -60.50799 -42.00702 -180 81.53329 -180 10.36486 2.717045 3.202449 66.32079 -49.39099 53.7773 -180 71.58679 -180 -7.2979 -7.82132 -13.14959 -2.063167 21.94215 3.651845 6.538881 15.52814 -8.179942 -11.05859 8.858414 23.27797 5.413753 -26.70296 22.0192 21.52701 -11.44685 21.32867 -62.94741 -29.52984 12.50011 0 -71.71874 0 19.91443 -0.4628308 30.37264 -19.39836 -48.13484 -2.762428 67.27561 -6.924747 7.455975 0 -32.80879 0 -2.09524 -18.16855 13.38349
0.3596235 47.9832 0.1633426 -3.367657 -20.36905 -0.1736759 -52.04712 -60.5929 -41.67356 -180 81.6033 -180 10.38595 2.689484 3.132756 66.45912 -49.57542 53.60355 -180 71.45745 -180 -7.305849 -7.969833 -12.96403 -2.401279 21.82979 3.501837 6.744699 15.48879 -8.554911 -10.01021 8.837283 21.51074 6.033323 -27.0015 20.15183 21.77719 -11.30745 21.81043 -62.97871 -29.51123 12.73415 0 -71.28933 0 19.90265 -1.07412 29.67214 -19.05253 -49.00207 -3.463167 68.03941 -7.334731 7.155496 0 -30.09889 0 -3.897959 -18.40089 13.82054
0.3305654 47.97655 0.1722956 -3.605377 -20.33484 -0.3194211 -51.53192 -60.73075 -41.35925 -180 81.63986 -180 10.41227 2.663677 3.065364 66.63892 -49.72475 53.44848 -180 71.38014 -180 -7.30905 -8.075848 -12.78387 -2.862874 21.82013 3.312973 7.009377 15.37814 -8.95433 -8.775456 8.724779 19.67537 6.758695 -27.47329 18.27856 21.96939 -11.16479 22.3324 -62.95521 -29.6146 13.06254 0 -70.80511 0 19.88327 -1.718264 28.86926 -18.83609 -49.87432 -4.199272 68.80739 -7.679153 6.944739 0 -27.63002 0 -5.286817 -18.48801 14.26695
0.2566423 47.96265 0.1578701 -3.791945 -20.30413 -0.5151279 -51.08879 -60.9123 -41.1407 -180 81.67236 -180 10.43828 2.654704 3.02399 66.86671 -49.77811 53.36209 -180 71.35193 -180 -7.304606 -8.131532 -12.6423 -3.421443 21.9218 3.078981 7.343023 15.21211 -9.330096 -7.469196 8.450045 18.03114 7.570946 -28.09498 16.67382 22.09874 -11.03889 22.87621 -62.89733 -29.86759 13.48488 0 -70.30528 0 19.85758 -2.39256 27.95515 -18.68879 -50.61043 -4.971644 69.57853 -7.802942 6.784024 0 -25.13347 0 -6.324059 -18.34248 14.78208
0.1573405 47.95631 0.1291612 -3.898279 -20.28095 -0.7438347 -50.77535 -61.09876 -41.04348 -180 81.6971 -180 10.45683 2.671782 3.030452 67.08453 -49.70162 53.34846 -180 71.36177 -180 -7.300371 -8.15234 -12.56311 -3.942674 22.06365 2.833795 7.670425 15.03928 -9.606631 -6.246218 8.061516 16.66736 8.402692 -28.78197 15.38406 22.2062 -10.91703 23.34929 -62.7897 -30.22421 13.97281 0 -69.8614 0 19.81317 -3.114235 26.92632 -18.57406 -51.2075 -5.553187 70.37176 -7.639396 6.710851 0 -22.88046 0 -6.973747 -18.04031 15.35285
0.08877594 47.94052 0.106934 -3.962562 -20.25968 -1.010798 -50.66038 -61.24812 -41.12847 -180 81.72809 -180 10.46279 2.707964 3.107144 67.28678 -49.51737 53.39801 -180 71.3658 -180 -7.311605 -8.180629 -12.5421 -4.400377 22.21663 2.619082 7.988845 14.88788 -9.773246 -5.133966 7.575193 15.55319 9.199265 -29.49682 14.38133 22.30905 -10.82943 23.66637 -62.68061 -30.60769 14.43227 0 -69.49697 0 19.72648 -3.896573 25.76677 -18.38011 -51.62854 -5.787053 71.22273 -7.2643 6.648986 0 -21.24668 0 -7.385643 -17.70741 15.87709
0.06138968 47.9187 0.1120584 -4.01201 -20.25233 -1.272497 -50.72621 -61.31057 -41.37232 -180 81.74529 -180 10.4565 2.755646 3.246129 67.43744 -49.26987 53.4604 -180 71.34137 -180 -7.341812 -8.236946 -12.56945 -4.675566 22.29101 2.46271 8.257349 14.80322 -9.83174 -4.287971 7.066884 14.63127 9.843787 -30.1859 13.53777 22.35367 -10.76573 23.84242 -62.61533 -30.9562 14.83748 0 -69.16888 0 19.59354 -4.74412 24.45827 -18.08092 -51.74019 -5.677467 71.92379 -6.947721 6.370546 0 -20.77182 0 -7.676001 -17.46761 16.20282
0.06678827 47.91683 0.148801 -4.023541 -20.25209 -1.473266 -50.92079 -61.26929 -41.69044 -180 81.75791 -180 10.43954 2.792439 3.421431 67.46819 -49.01234 53.4668 -180 71.3278 -180 -7.380737 -8.315388 -12.62262 -4.676975 22.22256 2.399868 8.36282 14.83539 -9.802624 -3.85389 6.630263 13.84397 10.213 -30.73755 12.71798 22.26865 -10.72118 23.89036 -62.63194 -31.23828 15.18737 0 -68.8578 0 19.41382 -5.66646 22.98658 -17.82461 -51.5028 -5.27714 72.29288 -6.823335 5.789763 0 -21.76695 0 -7.901113 -17.38517 16.26424
